<svg xmlns="http://www.w3.org/2000/svg" width="76" height="76" fill="none" viewBox="0 0 76 76"><path fill="#83B3D3" d="M29.62 69h16.06V45.2H29.62V69Zm2.91-20.9h10.14v18H32.53v-18Z"/><path fill="#83B3D3" d="m72.9 43.3 2.1-2.1-9.94-9.9V4H51.1v13.6L37.45 4 0 41.2l2.1 2.1 7.84-7.8v37.6H5.92V76h64.16v-2.9h-5.12V35.5l7.93 7.8ZM62.04 73.1h-49.2V32.5l24.6-24.4 24.6 24.4v40.6Zm0-44.7-7.93-7.9V6.9h7.93v21.5Z"/><path fill="#83B3D3" d="M29.82 31.1c0 4.3 3.51 7.7 7.73 7.7a7.8 7.8 0 0 0 7.83-7.7c0-4.3-3.51-7.7-7.83-7.7a7.72 7.72 0 0 0-7.73 7.7Zm7.83-5a5 5 0 0 1 5.02 4.9c0 2.7-2.2 4.9-5.02 4.9a5 5 0 0 1-5.02-4.9c0-2.7 2.2-4.9 5.02-4.9ZM19.98 45.2h-3.01v3.9h3.01v-3.9ZM25.9 45.2h-3v3.9h3v-3.9ZM19.98 51.2h-3.01v3.9h3.01v-3.9ZM25.9 51.2h-3v3.9h3v-3.9ZM52 45.2h-3v3.9h3v-3.9ZM57.93 45.2h-3.01v3.9h3.01v-3.9ZM52 51.2h-3v3.9h3v-3.9ZM57.93 51.2h-3.01v3.9h3.01v-3.9Z"/></svg>